<?xml version="1.0" encoding="UTF-8" standalone="no"?>
<svg
   width="260"
   height="290"
   viewBox="0 0 260 290"
   fill="none"
   version="1.1"
   id="svg91"
   sodipodi:docname="Papyrus.svg"
   inkscape:version="1.1.2 (b8e25be833, 2022-02-05)"
   xmlns:inkscape="http://www.inkscape.org/namespaces/inkscape"
   xmlns:sodipodi="http://sodipodi.sourceforge.net/DTD/sodipodi-0.dtd"
   xmlns="http://www.w3.org/2000/svg"
   xmlns:svg="http://www.w3.org/2000/svg">
  <defs
     id="defs95">
    <inkscape:path-effect
       effect="skeletal"
       id="path-effect962"
       is_visible="true"
       lpeversion="1"
       pattern="M 0,18.867925 C 0,8.4528302 8.4528302,0 18.867925,0 c 10.415094,0 18.867924,8.4528302 18.867924,18.867925 0,10.415094 -8.45283,18.867924 -18.867924,18.867924 C 8.4528302,37.735849 0,29.283019 0,18.867925 Z"
       copytype="single_stretched"
       prop_scale="1"
       scale_y_rel="false"
       spacing="0"
       normal_offset="0"
       tang_offset="0"
       prop_units="false"
       vertical_pattern="false"
       hide_knot="false"
       fuse_tolerance="0" />
    <inkscape:path-effect
       effect="skeletal"
       id="path-effect925"
       is_visible="true"
       lpeversion="1"
       pattern="M 0,18.867925 C 0,8.4528302 8.4528302,0 18.867925,0 c 10.415094,0 18.867924,8.4528302 18.867924,18.867925 0,10.415094 -8.45283,18.867924 -18.867924,18.867924 C 8.4528302,37.735849 0,29.283019 0,18.867925 Z"
       copytype="single_stretched"
       prop_scale="1"
       scale_y_rel="false"
       spacing="0"
       normal_offset="0"
       tang_offset="0"
       prop_units="false"
       vertical_pattern="false"
       hide_knot="false"
       fuse_tolerance="0" />
    <inkscape:path-effect
       effect="simplify"
       id="path-effect888"
       is_visible="true"
       lpeversion="1"
       steps="1"
       threshold="0.000408163"
       smooth_angles="360"
       helper_size="0"
       simplify_individual_paths="false"
       simplify_just_coalesce="false" />
    <inkscape:path-effect
       effect="bspline"
       id="path-effect851"
       is_visible="true"
       lpeversion="1"
       weight="33.333333"
       steps="2"
       helper_size="0"
       apply_no_weight="true"
       apply_with_weight="true"
       only_selected="false" />
    <inkscape:path-effect
       effect="spiro"
       id="path-effect814"
       is_visible="true"
       lpeversion="1" />
  </defs>
  <sodipodi:namedview
     id="namedview93"
     pagecolor="#ffffff"
     bordercolor="#666666"
     borderopacity="1.0"
     inkscape:pageshadow="2"
     inkscape:pageopacity="0.0"
     inkscape:pagecheckerboard="0"
     showgrid="false"
     inkscape:zoom="2.3202039"
     inkscape:cx="129.08349"
     inkscape:cy="132.74696"
     inkscape:window-width="2560"
     inkscape:window-height="1009"
     inkscape:window-x="-8"
     inkscape:window-y="-8"
     inkscape:window-maximized="1"
     inkscape:current-layer="svg91"
     inkscape:object-paths="false" />
  <path
     d="m 55.074493,48.609545 c 0,-2.209 1.791,-4 4,-4 v 0 c 2.209,0 4,1.791 4,4 V 240.60954 c 0,2.209 -1.791,4 -4,4 v 0 c -2.209,0 -4,-1.791 -4,-4 z"
     fill="#0d2971"
     id="path73" />
  <path
     d="m 46.828739,25.12762 c 0,-2.2091 1.791,-4 4,-4 H 182.82874 c 2.209,0 4,1.7909 4,4 v 0 c 0,2.2091 -1.791,4 -4,4 H 50.828739 c -2.209,0 -4,-1.7909 -4,-4 z"
     fill="#0d2971"
     id="path75" />
  <path
     d="m 75.074493,224.60954 c 0,-2.209 1.791,-4 4,-4 H 211.07449 c 2.209,0 4,1.791 4,4 v 0 c 0,2.209 -1.791,4 -4,4 H 79.074493 c -2.209,0 -4,-1.791 -4,-4 z"
     fill="#0d2971"
     id="path77" />
  <path
     d="m 75.074493,264.60954 c 0,-2.209 1.791,-4 4,-4 H 211.07449 c 2.209,0 4,1.791 4,4 v 0 c 0,2.209 -1.791,4 -4,4 H 79.074493 c -2.209,0 -4,-1.791 -4,-4 z"
     fill="#0d2971"
     id="path79" />
  <path
     fill-rule="evenodd"
     clip-rule="evenodd"
     d="m 75.074493,268.60954 c 11.046,0 20,-10.745 20,-24 0,-13.255 -8.954,-24 -20,-24 -11.046,0 -20,10.745 -20,24 0,13.255 8.954,24 20,24 z m 0,-8 c 6.627,0 12,-7.163 12,-16 0,-8.837 -5.373,-16 -12,-16 -6.627,0 -12,7.163 -12,16 0,8.837 5.373,16 12,16 z"
     fill="#0d2971"
     id="path81" />
  <path
     fill-rule="evenodd"
     clip-rule="evenodd"
     d="m 43.074495,68.609542 c 11.045998,0 19.999998,-10.745 19.999998,-23.999997 0,-13.255 -8.954,-24 -19.999998,-24 -11.0457,0 -20,10.745 -20,24 0,13.254997 8.9543,23.999997 20,23.999997 z m 0,-8 c 6.627,0 11.999998,-7.162997 11.999998,-15.999997 0,-8.837 -5.372998,-16 -11.999998,-16 -6.6274,0 -12,7.163 -12,16 0,8.837 5.3726,15.999997 12,15.999997 z"
     fill="#0d2971"
     id="path83" />
  <path
     fill-rule="evenodd"
     clip-rule="evenodd"
     d="m 204.96674,45.148291 c 0,7.852 -3.142,14.822997 -8,19.201997 V 45.148291 c 0,-8.837 -5.373,-16 -12,-16 -0.337,0 -0.67,0.0185 -1,0.0548 v -0.0548 h -13.907 c 3.662,-4.91 8.984,-8 14.907,-8 11.046,0 20,10.745 20,24 z"
     fill="#0d2971"
     id="path85" />
  <path
     fill-rule="evenodd"
     clip-rule="evenodd"
     d="m 231.98149,244.60954 c 0,13.255 -8.954,24 -20,24 -5.923,0 -11.245,-3.09 -14.907,-8 h 14.907 c 6.627,0 12,-7.163 12,-16 0,-8.837 -5.373,-16 -12,-16 h -14.907 c 3.662,-4.91 8.984,-8 14.907,-8 11.046,0 20,10.745 20,24 z"
     fill="#0d2971"
     id="path87" />
  <path
     fill-rule="evenodd"
     clip-rule="evenodd"
     d="m 201.07449,44.609545 c -2.209,0 -4,1.791 -4,4 V 228.60954 h 8 V 48.609545 c 0,-2.209 -1.791,-4 -4,-4 z"
     fill="#0d2971"
     id="path89" />
  <path
     style="font-variation-settings:normal;opacity:1;fill:none;fill-opacity:1;stroke:#0d2971;stroke-width:5.28917;stroke-linecap:round;stroke-linejoin:round;stroke-miterlimit:4;stroke-dasharray:none;stroke-dashoffset:0;stroke-opacity:1;paint-order:normal;stop-color:#000000;stop-opacity:1"
     d="m 79.397823,173.47148 14.35877,11.49038 11.906907,-11.06358 13.44853,11.0062 13.45477,-11.13076 13.82441,11.28096 13.45881,-11.27046 12.87375,11.18999 13.55243,-11.22571"
     id="path2971"
     sodipodi:nodetypes="ccccccccc" />
  <path
     style="font-variation-settings:normal;opacity:1;fill:none;fill-opacity:1;stroke:#0d2971;stroke-width:4.5;stroke-linecap:round;stroke-linejoin:miter;stroke-miterlimit:4;stroke-dasharray:none;stroke-dashoffset:0;stroke-opacity:1;stop-color:#000000;stop-opacity:1"
     d="m 120.30253,104.10028 c 27.13936,-33.233228 55.65959,-1.62468 55.65959,-1.62468"
     id="path6831"
     sodipodi:nodetypes="cc" />
  <path
     style="font-variation-settings:normal;opacity:1;fill:none;fill-opacity:1;stroke:#0d2971;stroke-width:4.71499;stroke-linecap:round;stroke-linejoin:miter;stroke-miterlimit:4;stroke-dasharray:none;stroke-dashoffset:0;stroke-opacity:1;stop-color:#000000;stop-opacity:1"
     d="m 119.68574,104.38423 c 26.80553,25.35209 52.51254,5.05752 56.27638,-1.90863"
     id="path6833"
     sodipodi:nodetypes="cc" />
  <path
     style="font-variation-settings:normal;opacity:1;fill:none;fill-opacity:1;stroke:#0d2971;stroke-width:4.5;stroke-linecap:round;stroke-linejoin:miter;stroke-miterlimit:4;stroke-dasharray:none;stroke-dashoffset:0;stroke-opacity:1;stop-color:#000000;stop-opacity:1"
     d="m 153.01468,117.48983 c 0.28781,23.71979 0.28781,23.71979 0.28781,23.71979"
     id="path6985" />
  <path
     style="font-variation-settings:normal;opacity:1;fill:none;fill-opacity:1;stroke:#0d2971;stroke-width:4.5;stroke-linecap:round;stroke-linejoin:miter;stroke-miterlimit:4;stroke-dasharray:none;stroke-dashoffset:0;stroke-opacity:1;stop-color:#000000;stop-opacity:1"
     d="M 119.68574,104.38423 C 91.174273,103.91474 91.174273,103.91474 91.174273,103.91474"
     id="path6987" />
  <ellipse
     style="fill:none;fill-opacity:1;stroke:#0d2971;stroke-width:5.05915;stroke-linecap:round;stroke-linejoin:round;stroke-miterlimit:4;stroke-dasharray:none;stroke-opacity:1;paint-order:normal"
     id="path7809"
     cx="147.78868"
     cy="103.29251"
     rx="10.605964"
     ry="10.257048" />
  <path
     style="font-variation-settings:normal;opacity:1;fill:none;fill-opacity:1;stroke:#0d2971;stroke-width:4.5;stroke-linecap:round;stroke-linejoin:miter;stroke-miterlimit:4;stroke-dasharray:none;stroke-dashoffset:0;stroke-opacity:1;stop-color:#000000;stop-opacity:1"
     d="m 77.482193,86.325292 c 11.44256,11.15186 25.874357,4.61521 34.001847,-0.10103 15.32697,-8.89397 15.23073,-9.71249 23.03126,-11.99954 0,0 5.21348,-1.44964 14.8581,-1.4314 10.18468,0.0193 14.64562,2.89254 19.43411,5.79942 7.2414,4.39593 9.76484,9.6696 17.66738,14.43528"
     id="path7924"
     sodipodi:nodetypes="cscssc" />
  <path
     style="font-variation-settings:normal;opacity:1;fill:none;fill-opacity:1;stroke:#0d2971;stroke-width:4.5;stroke-linecap:round;stroke-linejoin:miter;stroke-miterlimit:4;stroke-dasharray:none;stroke-dashoffset:0;stroke-opacity:1;stop-color:#000000;stop-opacity:1"
     d="m 143.06628,117.58491 c -10.43671,19.23729 -20.33615,27.67177 -36.01395,28.55052 -16.560977,0.3169 -20.733907,-1.5491 -25.884707,-8.34298 -4.88171,-6.43895 -1.7807,-12.57784 -0.50429,-15.56614 5.35984,-8.18961 14.63983,-6.64248 19.840777,-2.17934 4.13456,3.48933 2.4697,6.90904 2.67091,8.31241"
     id="path13160"
     sodipodi:nodetypes="ccsccc" />
</svg>
