<?xml version="1.0" encoding="UTF-8" standalone="no"?>
<svg
   width="386"
   height="442"
   viewBox="0 0 386 442"
   fill="none"
   version="1.1"
   id="svg91"
   sodipodi:docname="Papyrus.svg"
   inkscape:version="1.1.2 (0a00cf5339, 2022-02-04, custom)"
   xmlns:inkscape="http://www.inkscape.org/namespaces/inkscape"
   xmlns:sodipodi="http://sodipodi.sourceforge.net/DTD/sodipodi-0.dtd"
   xmlns="http://www.w3.org/2000/svg"
   xmlns:svg="http://www.w3.org/2000/svg">
  <defs
     id="defs95">
    <inkscape:path-effect
       effect="skeletal"
       id="path-effect962"
       is_visible="true"
       lpeversion="1"
       pattern="M 0,18.867925 C 0,8.4528302 8.4528302,0 18.867925,0 c 10.415094,0 18.867924,8.4528302 18.867924,18.867925 0,10.415094 -8.45283,18.867924 -18.867924,18.867924 C 8.4528302,37.735849 0,29.283019 0,18.867925 Z"
       copytype="single_stretched"
       prop_scale="1"
       scale_y_rel="false"
       spacing="0"
       normal_offset="0"
       tang_offset="0"
       prop_units="false"
       vertical_pattern="false"
       hide_knot="false"
       fuse_tolerance="0" />
    <inkscape:path-effect
       effect="skeletal"
       id="path-effect925"
       is_visible="true"
       lpeversion="1"
       pattern="M 0,18.867925 C 0,8.4528302 8.4528302,0 18.867925,0 c 10.415094,0 18.867924,8.4528302 18.867924,18.867925 0,10.415094 -8.45283,18.867924 -18.867924,18.867924 C 8.4528302,37.735849 0,29.283019 0,18.867925 Z"
       copytype="single_stretched"
       prop_scale="1"
       scale_y_rel="false"
       spacing="0"
       normal_offset="0"
       tang_offset="0"
       prop_units="false"
       vertical_pattern="false"
       hide_knot="false"
       fuse_tolerance="0" />
    <inkscape:path-effect
       effect="simplify"
       id="path-effect888"
       is_visible="true"
       lpeversion="1"
       steps="1"
       threshold="0.000408163"
       smooth_angles="360"
       helper_size="0"
       simplify_individual_paths="false"
       simplify_just_coalesce="false" />
    <inkscape:path-effect
       effect="bspline"
       id="path-effect851"
       is_visible="true"
       lpeversion="1"
       weight="33.333333"
       steps="2"
       helper_size="0"
       apply_no_weight="true"
       apply_with_weight="true"
       only_selected="false" />
    <inkscape:path-effect
       effect="spiro"
       id="path-effect814"
       is_visible="true"
       lpeversion="1" />
  </defs>
  <sodipodi:namedview
     id="namedview93"
     pagecolor="#ffffff"
     bordercolor="#666666"
     borderopacity="1.0"
     inkscape:pageshadow="2"
     inkscape:pageopacity="0.0"
     inkscape:pagecheckerboard="0"
     showgrid="false"
     inkscape:zoom="4.6404077"
     inkscape:cx="252.02527"
     inkscape:cy="185.65179"
     inkscape:window-width="1920"
     inkscape:window-height="1020"
     inkscape:window-x="0"
     inkscape:window-y="0"
     inkscape:window-maximized="1"
     inkscape:current-layer="svg91"
     inkscape:object-paths="false" />
  <path
     d="M118 118C118 115.791 119.791 114 122 114V114C124.209 114 126 115.791 126 118L126 310C126 312.209 124.209 314 122 314V314C119.791 314 118 312.209 118 310L118 118Z"
     fill="#0D2971"
     id="path73" />
  <path
     d="M105 94C105 91.7909 106.791 90 109 90L241 90C243.209 90 245 91.7909 245 94V94C245 96.2091 243.209 98 241 98H109C106.791 98 105 96.2091 105 94V94Z"
     fill="#0D2971"
     id="path75" />
  <path
     d="M138 294C138 291.791 139.791 290 142 290H274C276.209 290 278 291.791 278 294V294C278 296.209 276.209 298 274 298H142C139.791 298 138 296.209 138 294V294Z"
     fill="#0D2971"
     id="path77" />
  <path
     d="M138 334C138 331.791 139.791 330 142 330H274C276.209 330 278 331.791 278 334V334C278 336.209 276.209 338 274 338H142C139.791 338 138 336.209 138 334V334Z"
     fill="#0D2971"
     id="path79" />
  <path
     fill-rule="evenodd"
     clip-rule="evenodd"
     d="M138 338C149.046 338 158 327.255 158 314C158 300.745 149.046 290 138 290C126.954 290 118 300.745 118 314C118 327.255 126.954 338 138 338ZM138 330C144.627 330 150 322.837 150 314C150 305.163 144.627 298 138 298C131.373 298 126 305.163 126 314C126 322.837 131.373 330 138 330Z"
     fill="#0D2971"
     id="path81" />
  <path
     fill-rule="evenodd"
     clip-rule="evenodd"
     d="M106 138C117.046 138 126 127.255 126 114C126 100.745 117.046 90 106 90C94.9543 90 86 100.745 86 114C86 127.255 94.9543 138 106 138ZM106 130C112.627 130 118 122.837 118 114C118 105.163 112.627 98 106 98C99.3726 98 94 105.163 94 114C94 122.837 99.3726 130 106 130Z"
     fill="#0D2971"
     id="path83" />
  <path
     fill-rule="evenodd"
     clip-rule="evenodd"
     d="M268 114C268 121.852 264.858 128.823 260 133.202V114C260 105.163 254.627 98 248 98C247.663 98 247.33 98.0185 247 98.0548V98H233.093C236.755 93.09 242.077 90 248 90C259.046 90 268 100.745 268 114Z"
     fill="#0D2971"
     id="path85" />
  <path
     fill-rule="evenodd"
     clip-rule="evenodd"
     d="M300 314C300 327.255 291.046 338 280 338C274.077 338 268.755 334.91 265.093 330H280C286.627 330 292 322.837 292 314C292 305.163 286.627 298 280 298H265.093C268.755 293.09 274.077 290 280 290C291.046 290 300 300.745 300 314Z"
     fill="#0D2971"
     id="path87" />
  <path
     fill-rule="evenodd"
     clip-rule="evenodd"
     d="M264 114C261.791 114 260 115.791 260 118V298H268V118C268 115.791 266.209 114 264 114Z"
     fill="#0D2971"
     id="path89" />
  <path
     style="font-variation-settings:normal;opacity:1;fill:none;fill-opacity:1;stroke:#0d2971;stroke-width:5.28917;stroke-linecap:round;stroke-linejoin:round;stroke-miterlimit:4;stroke-dasharray:none;stroke-dashoffset:0;stroke-opacity:1;paint-order:normal;stop-color:#000000;stop-opacity:1"
     d="m 142.32333,242.86194 14.35877,11.49038 11.90691,-11.06358 13.44853,11.0062 13.45477,-11.13076 13.82441,11.28096 13.45881,-11.27046 12.87375,11.18999 13.55243,-11.22571"
     id="path2971"
     sodipodi:nodetypes="ccccccccc" />
  <path
     style="font-variation-settings:normal;opacity:1;fill:none;fill-opacity:1;stroke:#0d2971;stroke-width:4.5;stroke-linecap:round;stroke-linejoin:miter;stroke-miterlimit:4;stroke-dasharray:none;stroke-dashoffset:0;stroke-opacity:1;stop-color:#000000;stop-opacity:1"
     d="m 183.22804,173.49074 c 27.13936,-33.23323 55.65959,-1.62468 55.65959,-1.62468"
     id="path6831"
     sodipodi:nodetypes="cc" />
  <path
     style="font-variation-settings:normal;opacity:1;fill:none;fill-opacity:1;stroke:#0d2971;stroke-width:4.71499;stroke-linecap:round;stroke-linejoin:miter;stroke-miterlimit:4;stroke-dasharray:none;stroke-dashoffset:0;stroke-opacity:1;stop-color:#000000;stop-opacity:1"
     d="m 182.61125,173.77469 c 26.80553,25.35209 52.51254,5.05752 56.27638,-1.90863"
     id="path6833"
     sodipodi:nodetypes="cc" />
  <path
     style="font-variation-settings:normal;opacity:1;fill:none;fill-opacity:1;stroke:#0d2971;stroke-width:4.5;stroke-linecap:round;stroke-linejoin:miter;stroke-miterlimit:4;stroke-dasharray:none;stroke-dashoffset:0;stroke-opacity:1;stop-color:#000000;stop-opacity:1"
     d="m 215.94019,186.88029 c 0.28781,23.71979 0.28781,23.71979 0.28781,23.71979"
     id="path6985" />
  <path
     style="font-variation-settings:normal;opacity:1;fill:none;fill-opacity:1;stroke:#0d2971;stroke-width:4.5;stroke-linecap:round;stroke-linejoin:miter;stroke-miterlimit:4;stroke-dasharray:none;stroke-dashoffset:0;stroke-opacity:1;stop-color:#000000;stop-opacity:1"
     d="M 182.61125,173.77469 C 154.09978,173.3052 154.09978,173.3052 154.09978,173.3052"
     id="path6987" />
  <ellipse
     style="fill:none;fill-opacity:1;stroke:#0d2971;stroke-width:5.05915;stroke-linecap:round;stroke-linejoin:round;stroke-miterlimit:4;stroke-dasharray:none;stroke-opacity:1;paint-order:normal"
     id="path7809"
     cx="210.71419"
     cy="172.68297"
     rx="10.605964"
     ry="10.257048" />
  <path
     style="font-variation-settings:normal;opacity:1;fill:none;fill-opacity:1;stroke:#0d2971;stroke-width:4.5;stroke-linecap:round;stroke-linejoin:miter;stroke-miterlimit:4;stroke-dasharray:none;stroke-dashoffset:0;stroke-opacity:1;stop-color:#000000;stop-opacity:1"
     d="m 140.4077,155.71575 c 11.44256,11.15186 25.87436,4.61521 34.00185,-0.10103 15.32697,-8.89397 15.23073,-9.71249 23.03126,-11.99954 0,0 5.21348,-1.44964 14.8581,-1.4314 10.18468,0.0193 14.64562,2.89254 19.43411,5.79942 7.2414,4.39593 9.76484,9.6696 17.66738,14.43528"
     id="path7924"
     sodipodi:nodetypes="cscssc" />
  <path
     style="font-variation-settings:normal;opacity:1;fill:none;fill-opacity:1;stroke:#0d2971;stroke-width:4.5;stroke-linecap:round;stroke-linejoin:miter;stroke-miterlimit:4;stroke-dasharray:none;stroke-dashoffset:0;stroke-opacity:1;stop-color:#000000;stop-opacity:1"
     d="m 205.99179,186.97537 c -10.43671,19.23729 -20.33615,27.67177 -36.01395,28.55052 -16.56098,0.3169 -20.73391,-1.5491 -25.88471,-8.34298 -4.88171,-6.43895 -1.7807,-12.57784 -0.50429,-15.56614 5.35984,-8.18961 14.63983,-6.64248 19.84078,-2.17934 4.13456,3.48933 2.4697,6.90904 2.67091,8.31241"
     id="path13160"
     sodipodi:nodetypes="ccsccc" />
</svg>
